# xmcd
#
# Track frame offsets:
#	187
#	16682
#	30250
#	49612
#	62567
#	75695
#	93842
#	109550
#	126832
#	142732
#
# Disc length: 2081 seconds
#
# Revision: 3
# Processed by: cddbd v1.5.2PL0 Copyright (c) Steve Scherf et al.
# Submitted via: audiograbber 1.83.01
#
DISCID=67081f0a
DTITLE=Baillie and The Boys - The Best of Baillie and The Boys
DYEAR=1991
DGENRE=Country
TTITLE0=Read Between The Lines
TTITLE1=Fool Such As I
TTITLE2=(Wish I Had A) Heart Of Stone
TTITLE3=Long Shot
TTITLE4=She Deserves You
TTITLE5=I Can't Turn The Tide
TTITLE6=Oh Heart
TTITLE7=Wilder Days
TTITLE8=Treat Me Like A Stranger
TTITLE9=Perfect
EXTD=
EXTT0=
EXTT1=
EXTT2=
EXTT3=
EXTT4=
EXTT5=
EXTT6=
EXTT7=
EXTT8=
EXTT9=
PLAYORDER=
